# xmcd
#
# Track frame offsets: 
#        150
#        14871
#        32465
#        48469
#        65116
#        81145
#        102664
#        113067
#        128067
#        150357
#        166303
#        184987
#
# Disc length: 2607 seconds
#
# Revision: 0
# Processed by: cddbd v1.5.2PL0 Copyright (c) Steve Scherf et al.
# Submitted via: ExactAudioCopy v0.99pb4
#
DISCID=9f0a2d0c
DTITLE=Travis 'Moonchild' Haddix - Milk and Bread
DYEAR=2001
DGENRE=Blues
TTITLE0=Problem With That
TTITLE1=Milk and Bread
TTITLE2=Your Finger Prints
TTITLE3=Why Wait
TTITLE4=Getting Together Again
TTITLE5=Do Wrong Right
TTITLE6=Catch You In The Truth
TTITLE7=Bread, Butter and Blues
TTITLE8=Hazeleyes
TTITLE9=Ode To The Bag Lady
TTITLE10=Same Old View
TTITLE11=Count This Up
EXTD=
EXTT0=
EXTT1=
EXTT2=
EXTT3=
EXTT4=
EXTT5=
EXTT6=
EXTT7=
EXTT8=
EXTT9=
EXTT10=
EXTT11=
PLAYORDER=
